<svg xmlns="http://www.w3.org/2000/svg" version="1.1" xmlns:xlink="http://www.w3.org/1999/xlink" xmlns:svgjs="http://svgjs.dev/svgjs" width="2000" height="2000" viewBox="0 0 2000 2000"><g transform="matrix(1,0,0,1,0,0)"><svg viewBox="0 0 280 280" data-background-color="#000000" preserveAspectRatio="xMidYMid meet" height="2000" width="2000" xmlns="http://www.w3.org/2000/svg" xmlns:xlink="http://www.w3.org/1999/xlink"><g id="tight-bounds" transform="matrix(1,0,0,1,0,0)"><svg viewBox="0 0 280 280" height="280" width="280"><g><svg viewBox="0 0 280 280" height="280" width="280"><g transform="matrix(1,0,0,1,60.80404050710668,97.04930008865692)"><svg viewBox="0 0 158.39191898578665 85.90139982268616" height="85.90139982268616" width="158.39191898578665"><g><svg viewBox="0 0 158.39191898578665 85.90139982268616" height="85.90139982268616" width="158.39191898578665"><g><svg viewBox="0 0 158.39191898578665 85.90139982268616" height="85.90139982268616" width="158.39191898578665"><g transform="matrix(1,0,0,1,0,51.04910072276957)"><svg viewBox="0 0 158.39191898578665 34.85229909991658" height="34.85229909991658" width="158.39191898578665"><g id="textblocktransform"><svg viewBox="0 0 158.39191898578665 34.85229909991658" height="34.85229909991658" width="158.39191898578665" id="textblock"><g><svg viewBox="0 0 158.39191898578665 19.758390440810704" height="19.758390440810704" width="158.39191898578665"><g transform="matrix(1,0,0,1,0,0)"><svg width="158.39191898578665" viewBox="0.95 -36.5 292.57 36.5" height="19.758390440810704" data-palette-color="#ffff00"><path d="M23.4 0L20.95 0Q18 0 15.8-1.33 13.6-2.65 12.38-4.9 11.15-7.15 11.15-9.9L11.15-9.9 11.15-29.75 0.95-29.75 0.95-35 27.3-35 27.3-29.75 17.1-29.75 17.1-9.15Q17.1-7.55 18.2-6.4 19.3-5.25 21-5.25L21-5.25 23.4-5.25 23.4 0ZM34.95 0L29.2 0 29.2-36.5 34.95-36.5 34.95-22.95Q36.5-24.6 38.55-25.35 40.6-26.1 42.7-26.1L42.7-26.1Q46.2-26.1 48.67-24.63 51.15-23.15 52.45-20.58 53.75-18 53.75-14.7L53.75-14.7 53.75 0 48.05 0 48.05-14.65Q48.05-16.6 47.12-18.07 46.2-19.55 44.72-20.38 43.25-21.2 41.45-21.2L41.45-21.2Q39.75-21.2 38.25-20.4 36.75-19.6 35.85-18.15 34.95-16.7 34.95-14.85L34.95-14.85 34.95 0ZM80.4 0L73.55 0Q69.25 0 66.02-1.63 62.8-3.25 61-6.13 59.2-9 59.2-12.75L59.2-12.75Q59.2-16.7 60.8-19.7 62.4-22.7 65.2-24.4 68-26.1 71.65-26.1L71.65-26.1Q75.75-26.1 78.4-24.35 81.05-22.6 82.32-19.65 83.6-16.7 83.6-13.05L83.6-13.05Q83.6-12.55 83.55-11.9 83.5-11.25 83.4-10.9L83.4-10.9 65.3-10.9Q65.6-8.9 66.75-7.58 67.9-6.25 69.65-5.58 71.4-4.9 73.55-4.9L73.55-4.9 80.4-4.9 80.4 0ZM65.25-14.8L65.25-14.8 77.85-14.8Q77.8-15.75 77.57-16.7 77.35-17.65 76.87-18.5 76.4-19.35 75.67-19.98 74.95-20.6 73.95-20.98 72.95-21.35 71.65-21.35L71.65-21.35Q70.15-21.35 69-20.78 67.85-20.2 67.05-19.28 66.25-18.35 65.82-17.18 65.4-16 65.25-14.8ZM107.89 0L101.89 0 101.89-25.35Q101.94-28.1 103.22-30.28 104.49-32.45 106.67-33.73 108.84-35 111.59-35L111.59-35 124.09-35 124.09-29.75 112.24-29.75Q110.34-29.75 109.12-28.48 107.89-27.2 107.89-25.35L107.89-25.35 107.89-18.95 122.34-18.95 122.34-13.7 107.89-13.7 107.89 0ZM135.04 0L129.29 0 129.29-25.5 135.04-25.5 135.04 0ZM132.14-29.05L132.14-29.05Q130.64-29.05 129.54-30.15 128.44-31.25 128.44-32.75L128.44-32.75Q128.44-34.25 129.54-35.35 130.64-36.45 132.14-36.45L132.14-36.45Q133.69-36.45 134.76-35.35 135.84-34.25 135.84-32.75L135.84-32.75Q135.84-31.25 134.76-30.15 133.69-29.05 132.14-29.05ZM147.69 0L141.94 0 141.94-36.5 147.69-36.5 147.69 0ZM160.28 0L154.58 0 154.58-15.25Q154.58-18.2 155.98-20.68 157.38-23.15 160.03-24.63 162.68-26.1 166.38-26.1L166.38-26.1Q168.18-26.1 169.83-25.65 171.48-25.2 172.91-24.23 174.33-23.25 175.33-21.8L175.33-21.8 175.38-21.8Q176.38-23.25 177.81-24.23 179.23-25.2 180.91-25.65 182.58-26.1 184.38-26.1L184.38-26.1Q188.13-26.1 190.76-24.63 193.38-23.15 194.78-20.68 196.18-18.2 196.18-15.25L196.18-15.25 196.18 0 190.48 0 190.48-15.25Q190.48-16.9 189.66-18.25 188.83-19.6 187.48-20.4 186.13-21.2 184.38-21.2L184.38-21.2Q182.68-21.2 181.28-20.4 179.88-19.6 179.06-18.25 178.23-16.9 178.23-15.25L178.23-15.25 178.23 0 172.53 0 172.53-15.25Q172.53-16.9 171.68-18.25 170.83-19.6 169.46-20.4 168.08-21.2 166.38-21.2L166.38-21.2Q164.68-21.2 163.31-20.4 161.93-19.6 161.11-18.25 160.28-16.9 160.28-15.25L160.28-15.25 160.28 0ZM235.18 0L225.88 0Q222.93 0 220.7-1.33 218.48-2.65 217.25-4.9 216.03-7.15 216.03-9.9L216.03-9.9 216.03-35 222.03-35 222.03-9.15Q222.03-7.55 223.1-6.4 224.18-5.25 225.88-5.25L225.88-5.25 235.18-5.25 235.18 0ZM245.63 0L239.88 0 239.88-25.5 245.63-25.5 245.63 0ZM242.73-29.05L242.73-29.05Q241.23-29.05 240.13-30.15 239.03-31.25 239.03-32.75L239.03-32.75Q239.03-34.25 240.13-35.35 241.23-36.45 242.73-36.45L242.73-36.45Q244.28-36.45 245.35-35.35 246.43-34.25 246.43-32.75L246.43-32.75Q246.43-31.25 245.35-30.15 244.28-29.05 242.73-29.05ZM265.32 0L252.42 0 252.42-4.9 264.72-4.9Q265.62-4.9 266.3-5.3 266.97-5.7 267.35-6.35 267.72-7 267.72-7.7L267.72-7.7Q267.72-8.5 267.37-9.1 267.02-9.7 266.37-10.08 265.72-10.45 264.87-10.45L264.87-10.45 259.87-10.45Q257.42-10.45 255.52-11.25 253.62-12.05 252.52-13.73 251.42-15.4 251.42-17.95L251.42-17.95Q251.42-20 252.45-21.7 253.47-23.4 255.22-24.45 256.97-25.5 259.17-25.5L259.17-25.5 271.02-25.5 271.02-20.6 259.72-20.6Q258.57-20.6 257.82-19.88 257.07-19.15 257.07-18.1L257.07-18.1Q257.07-17.1 257.82-16.35 258.57-15.6 259.82-15.6L259.82-15.6 264.67-15.6Q267.42-15.6 269.37-14.75 271.32-13.9 272.35-12.2 273.37-10.5 273.37-7.9L273.37-7.9Q273.37-5.8 272.32-3.98 271.27-2.15 269.45-1.07 267.62 0 265.32 0L265.32 0ZM293.47 0L287.12 0Q283.72 0 281.8-1.95 279.87-3.9 279.87-7.25L279.87-7.25 279.87-31.9 285.57-31.9 285.57-7.5Q285.57-6.35 286.27-5.63 286.97-4.9 288.12-4.9L288.12-4.9 293.47-4.9 293.47 0ZM293.52-20.6L275.47-20.6 275.47-25.5 293.52-25.5 293.52-20.6Z" opacity="1" transform="matrix(1,0,0,1,0,0)" fill="#ffff00" class="wordmark-text-0" data-fill-palette-color="primary" id="text-0"></path></svg></g></svg></g><g transform="matrix(1,0,0,1,0,22.641613807495567)"><svg viewBox="0 0 158.39191898578665 12.210685292421015" height="12.210685292421015" width="158.39191898578665"><g transform="matrix(1,0,0,1,0,0)"><svg width="158.39191898578665" viewBox="0.17 -40.82 726.14 55.96" height="12.210685292421015" data-palette-color="#ffff00"><path d="M0.17-0.2L0.17-0.2 0.17-0.88Q0.17-1.07 0.37-1.07L0.37-1.07 0.9-1.07Q1.93-1.15 3-1.16 4.08-1.17 4.96-1.42L4.96-1.42Q6.96-2 6.96-4.35L6.96-4.35 6.96-30.08Q6.96-32.5 4.1-33.15L4.1-33.15Q3.3-33.33 2.47-33.45L2.47-33.45 1.95-33.45Q1.76-33.45 1.76-33.64L1.76-33.64 1.76-34.23Q1.76-34.42 1.95-34.42L1.95-34.42 25.17-34.42Q25.61-34.42 25.81-34.27 26-34.11 26.05-33.57L26.05-33.57 26.49-26.49Q26.49-26.25 26.12-26.25 25.76-26.25 25.59-26.46L25.59-26.46Q25.44-26.71 25.21-28.25 24.98-29.79 24.37-30.81 23.75-31.84 22.22-32.1L22.22-32.1 12.04-32.1Q11.72-32.1 11.72-31.79L11.72-31.79 11.72-19.17Q11.72-18.92 11.96-18.92L11.96-18.92 20.41-18.92Q23.68-18.92 23.68-22.73L23.68-22.73Q23.68-22.92 23.88-22.92L23.88-22.92 24.46-22.92Q24.66-22.92 24.66-22.73L24.66-22.73 24.66-12.28Q24.66-12.08 24.46-12.08L24.46-12.08 23.88-12.08Q23.68-12.08 23.68-12.28L23.68-12.28Q23.68-15.89 21.58-16.46L21.58-16.46Q21-16.6 20.34-16.6L20.34-16.6 11.96-16.6Q11.72-16.6 11.72-16.36L11.72-16.36 11.72-4.47Q11.72-2.64 13.4-2.39L13.4-2.39Q13.89-2.32 14.43-2.32L14.43-2.32 22.56-2.32Q25.07-2.32 26.46-4.54L26.46-4.54Q27.47-6.13 27.69-8.18L27.69-8.18Q27.76-8.86 28.42-8.86L28.42-8.86Q28.71-8.86 28.71-8.54L28.71-8.54 27.91-0.34Q27.76 0 27.56 0L27.56 0 0.37 0Q0.17 0 0.17-0.2ZM83.41-21.97L90.9-21.97Q91.1-21.97 91.1-21.58 91.1-21.19 90.9-21.09L90.9-21.09Q89.02-20.58 87.9-19.38L87.9-19.38Q87.48-18.95 87-18.36L87-18.36 82.28-12.7Q82.19-12.52 82.19-12.38L82.19-12.38Q82.19-12.08 84.31-9.51 86.44-6.93 90.17-2.22L90.17-2.22Q90.44-1.88 91.24-1.54 92.05-1.2 92.34-0.99 92.64-0.78 92.64-0.44 92.64-0.1 92.34 0L92.34 0 82.72 0Q82.48 0 82.48-0.39 82.48-0.78 82.88-0.84 83.29-0.9 83.8-0.98L83.8-0.98Q85.09-1.17 85.09-2L85.09-2Q85.09-2.56 84.48-3.25L84.48-3.25 80.28-8.52Q80.09-8.79 79.98-8.94 79.87-9.08 79.55-9.08 79.23-9.08 79.05-8.83 78.87-8.57 78.67-8.37L78.67-8.37 74.84-3.76Q74.33-3.17 74.33-2.39 74.33-1.61 75.34-1.16 76.35-0.71 77.13-0.71L77.13-0.71Q77.3-0.71 77.3-0.34L77.3-0.34Q77.3 0 77.13 0L77.13 0 69.3 0Q68.91 0 68.91-0.44L68.91-0.44Q68.91-0.78 70.26-1.42 71.62-2.05 71.91-2.39L71.91-2.39 78.67-10.52Q78.65-10.57 78.59-10.64 78.52-10.72 78.31-10.99 78.09-11.25 77.62-11.83 77.16-12.4 75.17-14.86 73.18-17.31 70.98-20.04L70.98-20.04Q70.69-20.36 69.76-20.76 68.83-21.17 68.83-21.48L68.83-21.48Q68.88-21.97 69.42-21.97L69.42-21.97 78.5-21.97Q78.7-21.97 78.68-21.67 78.67-21.36 78.31-21.28 77.94-21.19 77.5-21.04L77.5-21.04Q76.33-20.7 76.33-19.85L76.33-19.85Q76.33-19.29 76.55-19.07L76.55-19.07 80.33-14.38Q80.53-14.16 80.73-13.9 80.94-13.65 81.1-13.65 81.26-13.65 81.45-13.89L81.45-13.89 85.04-18.07Q85.65-18.77 85.65-19.48 85.65-20.19 85.26-20.47 84.87-20.75 84.4-20.89 83.92-21.02 83.53-21.14 83.14-21.26 83.14-21.62 83.14-21.97 83.41-21.97L83.41-21.97ZM150.9-2.56L150.9-2.56Q147.53 0.66 143.33 0.66L143.33 0.66Q141.82 0.66 139.2 0.1L139.2 0.1Q138.79 0.1 138.75 0.39 138.71 0.68 138.69 1L138.69 1 138.69 11.43Q138.69 13.26 140.81 13.87L140.81 13.87Q141.74 14.11 142.55 14.22 143.35 14.33 143.59 14.43 143.82 14.53 143.82 14.81 143.82 15.09 143.57 15.14L143.57 15.14 131.34 15.14Q131.1 15.09 131.1 14.79L131.1 14.79Q131.1 14.36 132.25 14.21L132.25 14.21Q134.88 13.82 134.88 11.43L134.88 11.43 134.88-17.85Q134.88-18.87 133.76-19.26L133.76-19.26Q133.27-19.43 132.71-19.54 132.15-19.65 131.82-19.75 131.49-19.85 131.4-19.93 131.32-20.02 131.32-20.3 131.32-20.58 131.68-20.78L131.68-20.78 137.91-23.75Q138.1-23.85 138.3-23.85L138.3-23.85Q138.69-23.85 138.69-23.27L138.69-23.27 138.69-20.17Q138.69-19.9 138.97-19.9 139.25-19.9 140.33-20.61L140.33-20.61Q143.43-22.61 146.77-22.61L146.77-22.61Q149.12-22.61 151.07-20.7L151.07-20.7Q153.63-18.21 154.49-13.77L154.49-13.77Q154.73-12.5 154.73-11.07 154.73-9.64 154.27-8.06L154.27-8.06Q153.34-4.91 150.9-2.56ZM143.92-20.07L143.92-20.07Q140.59-20.07 138.69-18.16L138.69-18.16 138.69-4.44Q138.69-3.22 139.11-2.86L139.11-2.86Q140.18-1.93 142.4-1.42L142.4-1.42Q146.8-0.42 149.24-3.52L149.24-3.52Q150.97-5.74 150.97-8.89L150.97-8.89Q150.97-15.01 148.21-18.07L148.21-18.07Q146.55-19.92 143.92-20.07ZM205.69-0.93L205.69-0.93Q206.84-0.78 206.84-0.34L206.84-0.34Q206.84-0.05 206.6 0L206.6 0 195.71 0Q195.46-0.05 195.46-0.34L195.46-0.34Q195.46-0.78 196.61-0.93L196.61-0.93Q199.25-1.32 199.25-3.71L199.25-3.71 199.25-34.16Q199.25-35.18 198.12-35.57L198.12-35.57Q197.64-35.74 197.07-35.85 196.51-35.96 196.18-36.06 195.85-36.16 195.77-36.24 195.68-36.33 195.68-36.61 195.68-36.89 196.05-37.08L196.05-37.08 202.27-40.01Q202.57-40.16 202.64-40.16L202.64-40.16Q203.06-40.16 203.06-39.58L203.06-39.58 203.06-3.71Q203.06-1.32 205.69-0.93ZM247.08-10.97Q247.08-15.77 250.49-19.23 253.89-22.68 258.66-22.68 263.42-22.68 266.93-19.32 270.45-15.97 270.45-11.04 270.45-6.1 267.11-2.72 263.78 0.66 258.75 0.66 253.72 0.66 250.4-2.76 247.08-6.18 247.08-10.97ZM253.16-4.69L253.16-4.69Q255.55-0.66 259.68-0.66L259.68-0.66Q262.88-0.66 264.58-3.22 266.27-5.79 266.27-9.52 266.27-13.26 263.89-17.19 261.51-21.12 257.48-21.12L257.48-21.12Q254.53-21.12 252.83-18.57 251.14-16.02 251.14-12.1 251.14-8.18 253.16-4.69ZM326.39-17.5L326.39-17.5Q326.1-17.55 325.53-17.82L325.53-17.82Q323.51-18.75 322.36-18.75 321.21-18.75 319.96-17.32 318.7-15.89 318.7-14.75L318.7-14.75 318.7-3.71Q318.7-1.88 320.82-1.27L320.82-1.27Q321.75-1.03 322.56-0.92 323.36-0.81 323.59-0.71 323.83-0.61 323.83-0.33 323.83-0.05 323.58 0L323.58 0 311.35 0Q311.11-0.05 311.11-0.34L311.11-0.34Q311.11-0.78 312.25-0.93L312.25-0.93Q314.89-1.32 314.89-3.71L314.89-3.71 314.89-16.63Q314.89-17.65 313.77-18.04L313.77-18.04Q313.28-18.21 312.72-18.32 312.16-18.43 311.83-18.53 311.5-18.63 311.41-18.71 311.33-18.8 311.33-19.08 311.33-19.36 311.69-19.56L311.69-19.56 317.92-22.49Q318.21-22.63 318.28-22.63L318.28-22.63Q318.7-22.63 318.7-22.05L318.7-22.05 318.7-18.09Q318.7-17.8 318.85-17.8L318.85-17.8Q319.04-17.8 319.85-18.95L319.85-18.95Q322.17-22.19 323.68-22.19L323.68-22.19Q324.53-22.19 326.3-21.51 328.07-20.83 328.07-20.36L328.07-20.36Q328.07-19.8 327.51-18.65 326.95-17.5 326.39-17.5ZM385.43-12.87L371.27-12.87Q370.86-12.87 370.86-11.08L370.86-11.08Q370.86-7.3 373.1-4.74 375.35-2.17 378.68-2.17 382.01-2.17 385.09-5.05L385.09-5.05Q385.14-5.1 385.21-5.1L385.21-5.1 385.33-5.1Q385.48-5.1 385.61-4.87 385.75-4.64 385.87-4.57L385.87-4.57Q383.04-1.12 379.21 0.2L379.21 0.2Q377.89 0.66 376.23 0.66 374.57 0.66 372.86-0.26 371.15-1.17 369.93-2.66L369.93-2.66Q367.34-5.76 367.34-10.39 367.34-15.01 370.16-18.82 372.98-22.63 377.91-22.63L377.91-22.63Q381.45-22.63 383.7-19.47 385.94-16.31 385.94-13.92L385.94-13.92Q385.94-12.87 385.43-12.87L385.43-12.87ZM371.54-15.5L371.54-15.21Q371.54-14.75 371.98-14.75L371.98-14.75 381.18-14.75Q381.82-14.75 381.82-15.5L381.82-15.5Q381.82-17.26 380.24-19.1 378.67-20.95 376.79-20.95L376.79-20.95Q374.96-20.95 373.46-19.29 371.96-17.63 371.54-15.5L371.54-15.5ZM491.94-0.39L491.94-0.39Q491.94 0 491.5 0L491.5 0 478.1 0Q477.86-0.05 477.86-0.34L477.86-0.34Q477.86-0.78 479-0.93L479-0.93Q481.64-1.32 481.64-3.71L481.64-3.71 481.64-18.51Q481.64-18.77 481.35-18.77L481.35-18.77 478.69-18.77Q478.39-18.77 478.13-18.96 477.86-19.14 477.86-19.45 477.86-19.75 478.15-19.92L478.15-19.92Q478.57-20.17 480.1-20.58 481.64-21 481.64-21.95L481.64-21.95 481.64-22.75Q481.64-31.54 485.45-36.28L485.45-36.28Q487.57-38.94 491.92-40.38L491.92-40.38Q493.24-40.82 494.53-40.82 495.83-40.82 497.56-40.15 499.29-39.48 499.29-38.53L499.29-38.53Q499.29-38.33 499.23-38.18 499.17-38.04 499.1-37.82L499.1-37.82 498.1-35.67Q497.9-35.28 497.63-35.28L497.63-35.28Q497.56-35.28 496.58-36.05 495.61-36.82 494.52-37.46 493.43-38.11 491.97-38.11L491.97-38.11Q489.11-38.11 487.65-36.65 486.18-35.18 485.82-33.34 485.45-31.49 485.45-29.27L485.45-29.27 485.45-22.17Q485.45-21.97 485.69-21.97L485.69-21.97 490.46-21.97Q491.14-21.97 491.35-21.84 491.55-21.7 491.75-20.96 491.94-20.21 491.94-19.59 491.94-18.97 491.82-18.87 491.7-18.77 491.31-18.77L491.31-18.77 485.77-18.77Q485.45-18.77 485.45-18.53L485.45-18.53 485.45-4.2Q485.45-0.71 491.5-0.71L491.5-0.71Q491.94-0.66 491.94-0.39ZM542.27 0L531.38 0Q531.14-0.05 531.14-0.34L531.14-0.34Q531.14-0.78 532.29-0.93L532.29-0.93Q534.92-1.32 534.92-3.71L534.92-3.71 534.92-16.63Q534.92-17.65 533.8-18.04L533.8-18.04Q533.31-18.21 532.75-18.32 532.19-18.43 531.86-18.53 531.53-18.63 531.44-18.71 531.36-18.8 531.36-19.08 531.36-19.36 531.72-19.56L531.72-19.56 537.95-22.49Q538.24-22.63 538.32-22.63L538.32-22.63Q538.73-22.63 538.73-22.05L538.73-22.05 538.73-3.71Q538.73-1.32 541.37-0.93L541.37-0.93Q542.52-0.78 542.52-0.42 542.52-0.05 542.27 0L542.27 0ZM536.47-29.49Q535.46-29.49 534.69-30.13 533.92-30.76 533.92-31.9 533.92-33.03 534.65-33.69 535.39-34.35 536.4-34.35 537.41-34.35 538.11-33.57 538.8-32.79 538.8-31.88 538.8-30.98 538.15-30.24 537.49-29.49 536.47-29.49ZM592.01-0.93L592.01-0.93Q593.16-0.78 593.16-0.34L593.16-0.34Q593.16-0.05 592.92 0L592.92 0 582.03 0Q581.78-0.05 581.78-0.34L581.78-0.34Q581.78-0.78 582.93-0.93L582.93-0.93Q585.57-1.32 585.57-3.71L585.57-3.71 585.57-34.16Q585.57-35.18 584.44-35.57L584.44-35.57Q583.96-35.74 583.39-35.85 582.83-35.96 582.5-36.06 582.17-36.16 582.09-36.24 582-36.33 582-36.61 582-36.89 582.37-37.08L582.37-37.08 588.59-40.01Q588.89-40.16 588.96-40.16L588.96-40.16Q589.38-40.16 589.38-39.58L589.38-39.58 589.38-3.71Q589.38-1.32 592.01-0.93ZM665.46-7.69L665.46-7.69 665.41-12.84Q665.41-15.99 664.87-17.26 664.34-18.53 663.51-19.18 662.68-19.82 661.27-19.82 659.87-19.82 655.33-17.63L655.33-17.63Q654.72-17.26 654.69-16.94L654.69-16.94 654.69-3.81Q654.69-1.34 657.33-0.98L657.33-0.98Q658.48-0.81 658.48-0.43 658.48-0.05 658.23 0L658.23 0 647.34 0Q647.1-0.05 647.1-0.34L647.1-0.34Q647.1-0.81 648.25-0.98L648.25-0.98Q650.88-1.34 650.88-3.81L650.88-3.81 650.88-15.97Q650.88-19.8 646.15-19.8L646.15-19.8Q644.41-19.8 641.34-17.75L641.34-17.75Q640.56-17.24 640.19-16.8L640.19-16.8 640.19-3.81Q640.19-1.34 642.83-0.98L642.83-0.98Q643.97-0.81 643.97-0.43 643.97-0.05 643.73 0L643.73 0 632.84 0Q632.6-0.05 632.6-0.34L632.6-0.34Q632.6-0.81 633.74-0.98L633.74-0.98Q636.38-1.34 636.38-3.76L636.38-3.76 636.38-17.82Q636.38-18.85 635.26-19.24L635.26-19.24Q634.77-19.41 634.21-19.52 633.65-19.63 633.32-19.73 632.99-19.82 632.9-19.91 632.82-20 632.82-20.28 632.82-20.56 633.18-20.75L633.18-20.75 639.41-23.68Q639.7-23.83 639.77-23.83L639.77-23.83Q640.19-23.83 640.19-23.24L640.19-23.24 640.19-19.19Q640.21-19.04 640.37-19.04 640.53-19.04 641.18-19.38 641.83-19.73 642.88-20.35 643.93-20.97 645.65-21.8 647.37-22.63 649.3-22.63L649.3-22.63Q652.4-22.63 653.74-19.97L653.74-19.97Q654.25-18.9 654.67-19.06 655.08-19.21 655.96-19.65L655.96-19.65Q658.04-20.68 660.16-21.66 662.28-22.63 663.68-22.63L663.68-22.63Q669.32-22.63 669.32-12.35L669.32-12.35 669.1-5.22 669.1-3.81Q669.1-1.9 671-1.32L671-1.32Q671.81-1.05 672.55-0.94 673.3-0.83 673.53-0.73 673.76-0.63 673.76-0.34 673.76-0.05 673.52 0L673.52 0 661.75 0Q661.5-0.05 661.5-0.34L661.5-0.34Q661.5-0.81 662.65-0.98L662.65-0.98Q665.26-1.34 665.26-4L665.26-4Q665.46-5.22 665.46-7.69ZM724.96-18.95L724.96-16.7Q724.96-16.16 724.56-16.16 724.16-16.16 723.94-16.75L723.94-16.75Q723.35-18.36 722.19-19.6 721.03-20.85 719.33-20.85L719.33-20.85Q717.08-20.85 716.3-18.6L716.3-18.6Q716.05-17.85 716.05-17.04 716.05-16.24 717.08-15.25 718.1-14.26 720.45-12.89 722.79-11.52 723.87-10.57L723.87-10.57Q726.31-8.4 726.31-5.54 726.31-2.69 724.21-1.01 722.11 0.66 719.33 0.66L719.33 0.66Q717.84 0.66 716.63 0.26 715.42-0.15 715.24-0.15 715.05-0.15 714.65 0.26 714.25 0.66 714 0.66L714 0.66 713.59 0.66Q713.44 0.66 713.22-1.98 713-4.61 713-5.1 713-5.59 713.09-5.64 713.17-5.69 713.37-5.69 713.56-5.69 713.7-5.57 713.83-5.44 713.93-5.26 714.03-5.08 714.09-4.88 714.15-4.69 714.39-4.15L714.39-4.15Q716.05-0.61 719.52-0.61L719.52-0.61Q721.06-0.61 721.99-1.75 722.91-2.88 722.91-4.27 722.91-5.66 722.18-6.62 721.45-7.57 720.36-8.35 719.28-9.13 718.01-9.86L718.01-9.86Q713.08-12.74 713.08-16.24L713.08-16.24Q713.08-18.85 715.32-20.74 717.57-22.63 719.94-22.63 722.3-22.63 723.44-22.12 724.57-21.61 724.77-21.25 724.96-20.9 724.96-18.95L724.96-18.95Z" opacity="1" transform="matrix(1,0,0,1,0,0)" fill="#ffff00" class="slogan-text-1" data-fill-palette-color="secondary" id="text-1"></path></svg></g></svg></g></svg></g></svg></g><g transform="matrix(1,0,0,1,55.167266076070064,0)"><svg viewBox="0 0 48.05738683364651 48.165877356084714" height="48.165877356084714" width="48.05738683364651"><g><svg xmlns="http://www.w3.org/2000/svg" xmlns:xlink="http://www.w3.org/1999/xlink" version="1.1" x="0" y="0" viewBox="6.033 8.066 85.935 86.12899999999999" enable-background="new 0 0 100 100" xml:space="preserve" height="48.165877356084714" width="48.05738683364651" class="icon-icon-0" data-fill-palette-color="accent" id="icon-0"><path fill-rule="evenodd" clip-rule="evenodd" fill="#ffff00" d="M78.763 34.473l13-12.841-4.198-4.249-15.133 14.95L48.536 8.066l-4.256 4.191 21.876 22.215H6.033v59.723h85.935V34.473H78.763zM69.389 78.367c0 3.322-2.692 6.018-6.016 6.018H22.34c-3.325 0-6.018-2.695-6.018-6.018V51.496c0-3.323 2.693-6.018 6.018-6.018h41.033c3.323 0 6.016 2.695 6.016 6.018V78.367z" data-fill-palette-color="accent"></path></svg></g></svg></g><g></g></svg></g></svg></g></svg></g><g id="text-0"><path d="M34.752 97.924l-0.622 1.77c-0.502 1.43-1.261 2.563-2.277 3.399-1.012 0.844-2.168 1.368-3.467 1.571-1.295 0.212-2.607 0.084-3.937-0.383v0l-14.398-5.057-2.599 7.4-3.812-1.339 6.715-19.118 3.812 1.339-2.602 7.409 14.94 5.247c0.774 0.272 1.534 0.237 2.278-0.104 0.742-0.336 1.258-0.916 1.548-1.74v0l0.609-1.733z" fill="#ffff00" data-fill-palette-color="accent"></path><path d="M41.699 84.701l-2.338 3.76-23.834-14.822 2.339-3.76 8.844 5.5c-0.294-1.118-0.328-2.223-0.103-3.314 0.224-1.1 0.621-2.108 1.191-3.024v0c0.947-1.523 2.08-2.623 3.397-3.3 1.308-0.675 2.698-0.949 4.17-0.821 1.477 0.131 2.932 0.643 4.366 1.534v0l9.602 5.972-2.317 3.726-9.569-5.951c-0.849-0.528-1.717-0.791-2.606-0.79-0.892 0.006-1.718 0.218-2.476 0.634-0.762 0.423-1.385 1.025-1.872 1.806v0c-0.461 0.742-0.721 1.547-0.777 2.416-0.057 0.869 0.107 1.695 0.492 2.481 0.394 0.783 0.993 1.424 1.796 1.923v0z" fill="#ffff00" data-fill-palette-color="accent"></path><path d="M67.889 53.933l-3.837 3.614c-1.604 1.511-3.292 2.528-5.064 3.052-1.776 0.528-3.505 0.574-5.187 0.14-1.682-0.443-3.183-1.366-4.504-2.768v0c-1.384-1.469-2.306-3.047-2.766-4.732-0.456-1.68-0.46-3.331-0.014-4.952 0.446-1.621 1.349-3.071 2.708-4.351v0c1.532-1.443 3.1-2.302 4.705-2.577 1.605-0.275 3.163-0.088 4.675 0.561 1.516 0.654 2.914 1.66 4.194 3.018v0c0.177 0.188 0.369 0.411 0.577 0.671 0.212 0.264 0.36 0.479 0.444 0.645v0l-10.131 9.544c0.819 0.638 1.674 1 2.566 1.088 0.896 0.092 1.788-0.043 2.674-0.405 0.891-0.367 1.737-0.927 2.536-1.68v0l3.837-3.615zM51.611 53.636v0l7.046-6.637c-0.35-0.343-0.734-0.649-1.153-0.919-0.418-0.279-0.866-0.494-1.343-0.644-0.478-0.15-0.961-0.214-1.448-0.191-0.492 0.018-0.992 0.134-1.499 0.348-0.503 0.21-0.997 0.544-1.484 1.003v0c-0.559 0.526-0.951 1.1-1.175 1.72-0.229 0.616-0.33 1.238-0.302 1.867 0.028 0.628 0.169 1.236 0.423 1.824 0.254 0.588 0.566 1.131 0.935 1.629z" fill="#ffff00" data-fill-palette-color="accent"></path><path d="M97.04 36.936l-4.295 1.691-7.14-18.134c-0.492-1.321-0.638-2.623-0.438-3.903 0.196-1.272 0.695-2.418 1.496-3.438 0.795-1.017 1.848-1.784 3.159-2.3v0l8.942-3.521 1.481 3.76-8.471 3.335c-0.911 0.359-1.538 0.954-1.88 1.786-0.345 0.84-0.343 1.703 0.007 2.59v0l1.8 4.573 10.337-4.07 1.48 3.76-10.337 4.07z" fill="#ffff00" data-fill-palette-color="accent"></path><path d="M123.174 29.381l-4.35 0.827-3.659-19.264 4.35-0.826zM116.811 7.852v0c-0.754 0.143-1.46-0.009-2.118-0.456-0.664-0.446-1.069-1.05-1.213-1.811v0c-0.143-0.754 0.012-1.461 0.466-2.12 0.448-0.658 1.049-1.058 1.803-1.201v0c0.78-0.148 1.493 0.003 2.138 0.453 0.651 0.449 1.048 1.051 1.191 1.804v0c0.144 0.761-0.004 1.469-0.445 2.126-0.435 0.655-1.042 1.057-1.822 1.205z" fill="#ffff00" data-fill-palette-color="accent"></path><path d="M139.736 28.033l-4.423 0.217-1.377-28.033 4.422-0.217z" fill="#ffff00" data-fill-palette-color="accent"></path><path d="M155.051 29.708l-4.297-0.892 2.383-11.48c0.308-1.484 0.944-2.772 1.907-3.863 0.958-1.099 2.178-1.88 3.66-2.343 1.49-0.468 3.161-0.51 5.015-0.125v0c0.907 0.188 1.749 0.481 2.524 0.879 0.782 0.399 1.482 0.919 2.1 1.561 0.612 0.634 1.092 1.366 1.44 2.195v0l0.039 0.008c0.656-0.621 1.391-1.1 2.205-1.439 0.815-0.345 1.667-0.543 2.557-0.594 0.89-0.052 1.785 0.016 2.685 0.202v0c1.886 0.391 3.409 1.096 4.571 2.115 1.162 1.012 1.967 2.213 2.415 3.604 0.443 1.383 0.51 2.817 0.203 4.3v0l-2.383 11.481-4.287-0.89 2.383-11.48c0.172-0.83 0.121-1.628-0.152-2.394-0.275-0.76-0.711-1.412-1.308-1.955-0.591-0.542-1.327-0.904-2.208-1.087v0c-0.849-0.176-1.668-0.137-2.458 0.118-0.783 0.257-1.452 0.679-2.007 1.267-0.556 0.594-0.92 1.306-1.092 2.136v0l-2.383 11.48-4.287-0.889 2.383-11.481c0.172-0.83 0.115-1.629-0.172-2.398-0.288-0.763-0.737-1.417-1.347-1.963-0.604-0.544-1.333-0.905-2.188-1.082v0c-0.849-0.176-1.662-0.135-2.439 0.122-0.77 0.259-1.433 0.683-1.987 1.271-0.556 0.594-0.92 1.306-1.092 2.136v0z" fill="#ffff00" data-fill-palette-color="accent"></path><path d="M217.746 57.508l-5.702-4.309c-1.209-0.914-2.062-1.986-2.56-3.217-0.501-1.225-0.653-2.489-0.457-3.792 0.193-1.298 0.714-2.509 1.564-3.634v0l11.637-15.397 3.683 2.783-11.984 15.857c-0.495 0.655-0.701 1.383-0.617 2.184 0.083 0.801 0.473 1.465 1.17 1.992v0l5.703 4.31z" fill="#ffff00" data-fill-palette-color="accent"></path><path d="M227.848 68.035l-3.014-3.244 14.363-13.347 3.014 3.244zM242.691 51.193v0c-0.523-0.562-0.769-1.241-0.74-2.036 0.025-0.8 0.321-1.463 0.888-1.991v0c0.562-0.523 1.243-0.767 2.043-0.733 0.795 0.029 1.454 0.325 1.976 0.888v0c0.541 0.582 0.792 1.265 0.754 2.051-0.034 0.79-0.332 1.447-0.894 1.969v0c-0.567 0.527-1.246 0.779-2.037 0.754-0.786-0.019-1.449-0.32-1.99-0.902z" fill="#ffff00" data-fill-palette-color="accent"></path><path d="M240.119 85.721l-5.277-8.41 3.196-2.005 5.028 8.014c0.246 0.392 0.548 0.68 0.905 0.863 0.351 0.186 0.721 0.271 1.108 0.254 0.386-0.008 0.73-0.107 1.033-0.297v0c0.348-0.218 0.604-0.488 0.769-0.81 0.163-0.313 0.238-0.661 0.225-1.044-0.013-0.382-0.136-0.759-0.369-1.128v0l-2.042-3.255c-0.668-1.065-1.087-2.119-1.256-3.161-0.173-1.048-0.045-2.039 0.385-2.973 0.43-0.934 1.197-1.747 2.301-2.44v0c0.891-0.559 1.846-0.85 2.865-0.871 1.016-0.012 1.991 0.216 2.925 0.684 0.933 0.478 1.698 1.193 2.296 2.146v0l4.844 7.72-3.187 2-4.617-7.358c-0.313-0.499-0.731-0.811-1.255-0.936-0.518-0.128-1.004-0.05-1.459 0.235v0c-0.437 0.274-0.717 0.676-0.837 1.206-0.121 0.529-0.011 1.066 0.33 1.609v0l1.979 3.154c0.749 1.194 1.204 2.331 1.365 3.409 0.167 1.075 0.021 2.069-0.438 2.982-0.462 0.907-1.257 1.714-2.383 2.422v0c-0.914 0.573-1.909 0.881-2.984 0.923-1.075 0.042-2.098-0.188-3.069-0.688-0.961-0.499-1.755-1.247-2.381-2.245z" fill="#ffff00" data-fill-palette-color="accent"></path><path d="M251.263 111.105l-1.666-4.592c-0.596-1.643-0.592-3.098 0.012-4.366 0.603-1.268 1.714-2.195 3.332-2.781v0l17.817-6.461 1.496 4.125-17.64 6.397c-0.554 0.201-0.944 0.532-1.171 0.995-0.227 0.462-0.239 0.97-0.038 1.524v0l1.404 3.873zM266.172 105.741l-4.735-13.057 3.538-1.283 4.734 13.057z" fill="#ffff00" data-fill-palette-color="accent"></path><path d="M16.237 197.129l-0.633-1.798c-0.506-1.436-0.623-2.805-0.351-4.108 0.265-1.3 0.841-2.443 1.728-3.429 0.888-0.986 2.003-1.716 3.345-2.189v0l14.543-5.121-2.631-7.472 3.84-1.352 6.795 19.3-3.839 1.352-2.631-7.473-15.086 5.312c-0.787 0.277-1.366 0.783-1.74 1.518-0.367 0.733-0.404 1.514-0.111 2.344v0l0.62 1.76z" fill="#ffff00" data-fill-palette-color="accent"></path><path d="M25.011 214.116l-2.357-3.783 24.049-14.982 2.357 3.783-8.923 5.56c1.152 0.234 2.17 0.699 3.056 1.394 0.891 0.692 1.626 1.502 2.203 2.429v0c0.955 1.534 1.45 3.047 1.482 4.539 0.024 1.49-0.35 2.874-1.122 4.15-0.772 1.276-1.883 2.366-3.333 3.269v0l-9.69 6.037-2.342-3.758 9.657-6.016c0.854-0.532 1.481-1.203 1.881-2.014 0.391-0.813 0.564-1.654 0.521-2.524-0.037-0.874-0.303-1.706-0.796-2.498v0c-0.465-0.747-1.08-1.339-1.843-1.776-0.761-0.446-1.585-0.666-2.47-0.66-0.883-0.003-1.732 0.249-2.547 0.756v0z" fill="#ffff00" data-fill-palette-color="accent"></path><path d="M54.562 248.91l-3.871-3.637c-1.625-1.528-2.758-3.169-3.397-4.924-0.64-1.755-0.79-3.494-0.45-5.218 0.34-1.724 1.174-3.293 2.502-4.707v0c1.401-1.49 2.937-2.517 4.61-3.079 1.664-0.562 3.325-0.667 4.984-0.316 1.659 0.351 3.176 1.173 4.55 2.465v0c1.548 1.455 2.511 2.982 2.889 4.581 0.377 1.599 0.286 3.18-0.275 4.742-0.565 1.567-1.493 3.038-2.784 4.413v0c-0.181 0.193-0.395 0.401-0.641 0.624-0.25 0.228-0.458 0.391-0.624 0.49v0l-10.244-9.627c-0.591 0.861-0.906 1.747-0.943 2.656-0.033 0.905 0.161 1.795 0.581 2.672 0.416 0.872 1.031 1.691 1.846 2.457v0l3.871 3.637zM53.863 232.49v0l7.126 6.697c0.321-0.38 0.605-0.789 0.854-1.228 0.253-0.434 0.443-0.896 0.568-1.387 0.116-0.491 0.15-0.981 0.101-1.471-0.053-0.495-0.202-0.989-0.446-1.482-0.24-0.498-0.606-0.979-1.098-1.441v0c-0.564-0.53-1.165-0.891-1.804-1.082-0.638-0.191-1.274-0.253-1.909-0.187-0.625 0.066-1.229 0.244-1.81 0.534-0.576 0.294-1.104 0.643-1.582 1.047z" fill="#ffff00" data-fill-palette-color="accent"></path><path d="M89.889 269.771l-4.343-1.707 7.197-18.314c0.545-1.315 1.333-2.378 2.363-3.189 1.028-0.805 2.185-1.307 3.471-1.505 1.289-0.204 2.596-0.046 3.921 0.474v0l9.027 3.548-1.489 3.788-8.556-3.362c-0.918-0.361-1.794-0.349-2.627 0.034-0.827 0.386-1.416 1.026-1.767 1.919v0l-1.816 4.62 10.441 4.103-1.492 3.798-10.441-4.104z" fill="#ffff00" data-fill-palette-color="accent"></path><path d="M119.569 278.34l-4.38-0.831 3.688-19.449 4.38 0.83zM121.567 255.76v0c-0.767-0.146-1.378-0.551-1.831-1.216-0.453-0.665-0.608-1.378-0.463-2.139v0c0.144-0.761 0.549-1.368 1.214-1.821 0.665-0.453 1.382-0.607 2.149-0.462v0c0.787 0.149 1.4 0.555 1.841 1.219 0.44 0.663 0.588 1.375 0.443 2.135v0c-0.144 0.761-0.543 1.369-1.194 1.825-0.652 0.456-1.372 0.609-2.159 0.459z" fill="#ffff00" data-fill-palette-color="accent"></path><path d="M138.742 280l-4.452-0.221 1.406-28.3 4.452 0.221z" fill="#ffff00" data-fill-palette-color="accent"></path><path d="M158.951 277.937l-4.336 0.899-2.405-11.598c-0.309-1.491-0.241-2.938 0.205-4.341 0.453-1.399 1.273-2.613 2.458-3.643 1.187-1.024 2.72-1.73 4.6-2.12v0c0.907-0.188 1.802-0.256 2.685-0.202 0.883 0.053 1.739 0.254 2.569 0.603 0.822 0.343 1.561 0.829 2.218 1.456v0l0.039-0.008c0.36-0.839 0.849-1.579 1.466-2.22 0.616-0.648 1.325-1.174 2.127-1.577 0.802-0.403 1.66-0.699 2.574-0.889v0c1.899-0.394 3.593-0.357 5.082 0.112 1.484 0.476 2.713 1.266 3.685 2.369 0.967 1.111 1.605 2.411 1.915 3.902v0l2.405 11.597-4.336 0.899-2.405-11.597c-0.173-0.836-0.538-1.551-1.094-2.146-0.564-0.6-1.227-1.03-1.991-1.29-0.772-0.266-1.601-0.307-2.489-0.123v0c-0.862 0.179-1.604 0.546-2.226 1.101-0.63 0.55-1.08 1.211-1.353 1.984-0.28 0.768-0.333 1.57-0.16 2.406v0l2.406 11.597-4.326 0.897-2.406-11.597c-0.173-0.836-0.548-1.549-1.123-2.14-0.57-0.598-1.247-1.026-2.03-1.282-0.778-0.264-1.598-0.307-2.46-0.129v0c-0.862 0.179-1.601 0.545-2.216 1.099-0.61 0.546-1.055 1.206-1.333 1.979-0.274 0.766-0.324 1.568-0.15 2.404v0z" fill="#ffff00" data-fill-palette-color="accent"></path><path d="M229.692 246.509l-5.759 4.351c-1.22 0.922-2.497 1.455-3.83 1.6-1.33 0.15-2.599-0.048-3.809-0.594-1.209-0.546-2.243-1.387-3.1-2.522v0l-11.749-15.549 3.723-2.813 12.096 16.008c0.503 0.665 1.155 1.068 1.958 1.208 0.799 0.135 1.549-0.063 2.251-0.594v0l5.759-4.351z" fill="#ffff00" data-fill-palette-color="accent"></path><path d="M242.257 233.759l-3.037 3.263-14.494-13.483 3.036-3.264zM224.213 220.038v0c-0.532 0.572-1.2 0.872-2.005 0.902-0.804 0.029-1.49-0.22-2.057-0.748v0c-0.567-0.527-0.865-1.193-0.894-1.998-0.029-0.804 0.222-1.493 0.754-2.064v0c0.545-0.586 1.216-0.889 2.011-0.909 0.795-0.019 1.477 0.235 2.044 0.762v0c0.567 0.527 0.87 1.189 0.908 1.983 0.038 0.795-0.216 1.485-0.761 2.072z" fill="#ffff00" data-fill-palette-color="accent"></path><path d="M256.769 213.163l-5.331 8.481-3.219-2.023 5.082-8.086c0.247-0.392 0.376-0.791 0.39-1.198 0.007-0.41-0.081-0.786-0.265-1.128-0.178-0.339-0.421-0.605-0.729-0.798v0c-0.353-0.222-0.709-0.34-1.067-0.354-0.358-0.014-0.709 0.07-1.051 0.254-0.342 0.184-0.629 0.46-0.862 0.83v0l-2.066 3.286c-0.676 1.076-1.453 1.92-2.331 2.534-0.869 0.611-1.822 0.927-2.859 0.947-1.037 0.02-2.116-0.322-3.236-1.026v0c-0.897-0.564-1.577-1.304-2.041-2.221-0.463-0.917-0.684-1.903-0.66-2.96 0.023-1.057 0.338-2.067 0.943-3.03v0l4.898-7.792 3.219 2.024-4.67 7.43c-0.317 0.504-0.42 1.022-0.309 1.554 0.11 0.522 0.397 0.93 0.862 1.222v0c0.437 0.275 0.92 0.352 1.45 0.231 0.538-0.123 0.98-0.459 1.325-1.008v0l2.003-3.186c0.757-1.205 1.591-2.115 2.502-2.731 0.909-0.625 1.877-0.927 2.904-0.907 1.027 0.02 2.109 0.388 3.247 1.103v0c0.919 0.578 1.635 1.348 2.147 2.311 0.512 0.963 0.752 1.993 0.719 3.091-0.029 1.092-0.361 2.142-0.995 3.15z" fill="#ffff00" data-fill-palette-color="accent"></path><path d="M269.773 184.009l-1.686 4.637c-0.602 1.655-1.545 2.776-2.83 3.366-1.293 0.593-2.755 0.593-4.384 0v0l-17.989-6.542 1.513-4.161 17.802 6.474c0.56 0.204 1.079 0.199 1.559-0.014 0.477-0.207 0.817-0.59 1.02-1.15v0l1.422-3.91zM254.752 178.515l-4.787 13.164-3.574-1.299 4.788-13.165z" fill="#ffff00" data-fill-palette-color="accent"></path><path d="M4.726 144.176c0-5.921 4.8-10.721 10.722-10.721 5.921 0 10.721 4.8 10.721 10.721 0 5.921-4.8 10.721-10.721 10.721-5.921 0-10.721-4.8-10.722-10.721z" fill="#ffff00" data-fill-palette-color="accent"></path><path d="M254.917 144.176c0-5.921 4.8-10.721 10.722-10.721 5.921 0 10.721 4.8 10.721 10.721 0 5.921-4.8 10.721-10.721 10.721-5.921 0-10.721-4.8-10.722-10.721z" fill="#ffff00" data-fill-palette-color="accent"></path></g><g id="text-1"></g></svg></g><defs></defs></svg><rect width="280" height="280" fill="none" stroke="none" visibility="hidden"></rect></g></svg></g></svg>