<svg xmlns="http://www.w3.org/2000/svg" version="1.1" xmlns:xlink="http://www.w3.org/1999/xlink" xmlns:svgjs="http://svgjs.dev/svgjs" width="2000" height="2000" viewBox="0 0 2000 2000"><g transform="matrix(1,0,0,1,0,0)"><svg viewBox="0 0 280 280" data-background-color="#000000" preserveAspectRatio="xMidYMid meet" height="2000" width="2000" xmlns="http://www.w3.org/2000/svg" xmlns:xlink="http://www.w3.org/1999/xlink"><g id="tight-bounds" transform="matrix(1,0,0,1,0,0)"><svg viewBox="0 0 280 280" height="280" width="280"><g><svg viewBox="0 0 280 280" height="280" width="280"><g transform="matrix(1,0,0,1,60.80404050710668,88.0599832569248)"><svg viewBox="0 0 158.39191898578665 103.88003348615041" height="103.88003348615041" width="158.39191898578665"><g><svg viewBox="0 0 158.39191898578665 103.88003348615041" height="103.88003348615041" width="158.39191898578665"><g><svg viewBox="0 0 158.39191898578665 103.88003348615041" height="103.88003348615041" width="158.39191898578665"><g transform="matrix(1,0,0,1,0,61.48002923784413)"><svg viewBox="0 0 158.39191898578665 42.400004248306274" height="42.400004248306274" width="158.39191898578665"><g id="textblocktransform"><svg viewBox="0 0 158.39191898578665 42.400004248306274" height="42.400004248306274" width="158.39191898578665" id="textblock"><g><svg viewBox="0 0 158.39191898578665 19.758390440810704" height="19.758390440810704" width="158.39191898578665"><g transform="matrix(1,0,0,1,0,0)"><svg width="158.39191898578665" viewBox="0.95 -36.5 292.57 36.5" height="19.758390440810704" data-palette-color="#ffff00"><path d="M23.4 0L20.95 0Q18 0 15.8-1.33 13.6-2.65 12.38-4.9 11.15-7.15 11.15-9.9L11.15-9.9 11.15-29.75 0.95-29.75 0.95-35 27.3-35 27.3-29.75 17.1-29.75 17.1-9.15Q17.1-7.55 18.2-6.4 19.3-5.25 21-5.25L21-5.25 23.4-5.25 23.4 0ZM34.95 0L29.2 0 29.2-36.5 34.95-36.5 34.95-22.95Q36.5-24.6 38.55-25.35 40.6-26.1 42.7-26.1L42.7-26.1Q46.2-26.1 48.67-24.63 51.15-23.15 52.45-20.58 53.75-18 53.75-14.7L53.75-14.7 53.75 0 48.05 0 48.05-14.65Q48.05-16.6 47.12-18.07 46.2-19.55 44.72-20.38 43.25-21.2 41.45-21.2L41.45-21.2Q39.75-21.2 38.25-20.4 36.75-19.6 35.85-18.15 34.95-16.7 34.95-14.85L34.95-14.85 34.95 0ZM80.4 0L73.55 0Q69.25 0 66.02-1.63 62.8-3.25 61-6.13 59.2-9 59.2-12.75L59.2-12.75Q59.2-16.7 60.8-19.7 62.4-22.7 65.2-24.4 68-26.1 71.65-26.1L71.65-26.1Q75.75-26.1 78.4-24.35 81.05-22.6 82.32-19.65 83.6-16.7 83.6-13.05L83.6-13.05Q83.6-12.55 83.55-11.9 83.5-11.25 83.4-10.9L83.4-10.9 65.3-10.9Q65.6-8.9 66.75-7.58 67.9-6.25 69.65-5.58 71.4-4.9 73.55-4.9L73.55-4.9 80.4-4.9 80.4 0ZM65.25-14.8L65.25-14.8 77.85-14.8Q77.8-15.75 77.57-16.7 77.35-17.65 76.87-18.5 76.4-19.35 75.67-19.98 74.95-20.6 73.95-20.98 72.95-21.35 71.65-21.35L71.65-21.35Q70.15-21.35 69-20.78 67.85-20.2 67.05-19.28 66.25-18.35 65.82-17.18 65.4-16 65.25-14.8ZM107.89 0L101.89 0 101.89-25.35Q101.94-28.1 103.22-30.28 104.49-32.45 106.67-33.73 108.84-35 111.59-35L111.59-35 124.09-35 124.09-29.75 112.24-29.75Q110.34-29.75 109.12-28.48 107.89-27.2 107.89-25.35L107.89-25.35 107.89-18.95 122.34-18.95 122.34-13.7 107.89-13.7 107.89 0ZM135.04 0L129.29 0 129.29-25.5 135.04-25.5 135.04 0ZM132.14-29.05L132.14-29.05Q130.64-29.05 129.54-30.15 128.44-31.25 128.44-32.75L128.44-32.75Q128.44-34.25 129.54-35.35 130.64-36.45 132.14-36.45L132.14-36.45Q133.69-36.45 134.76-35.35 135.84-34.25 135.84-32.75L135.84-32.75Q135.84-31.25 134.76-30.15 133.69-29.05 132.14-29.05ZM147.69 0L141.94 0 141.94-36.5 147.69-36.5 147.69 0ZM160.28 0L154.58 0 154.58-15.25Q154.58-18.2 155.98-20.68 157.38-23.15 160.03-24.63 162.68-26.1 166.38-26.1L166.38-26.1Q168.18-26.1 169.83-25.65 171.48-25.2 172.91-24.23 174.33-23.25 175.33-21.8L175.33-21.8 175.38-21.8Q176.38-23.25 177.81-24.23 179.23-25.2 180.91-25.65 182.58-26.1 184.38-26.1L184.38-26.1Q188.13-26.1 190.76-24.63 193.38-23.15 194.78-20.68 196.18-18.2 196.18-15.25L196.18-15.25 196.18 0 190.48 0 190.48-15.25Q190.48-16.9 189.66-18.25 188.83-19.6 187.48-20.4 186.13-21.2 184.38-21.2L184.38-21.2Q182.68-21.2 181.28-20.4 179.88-19.6 179.06-18.25 178.23-16.9 178.23-15.25L178.23-15.25 178.23 0 172.53 0 172.53-15.25Q172.53-16.9 171.68-18.25 170.83-19.6 169.46-20.4 168.08-21.2 166.38-21.2L166.38-21.2Q164.68-21.2 163.31-20.4 161.93-19.6 161.11-18.25 160.28-16.9 160.28-15.25L160.28-15.25 160.28 0ZM235.18 0L225.88 0Q222.93 0 220.7-1.33 218.48-2.65 217.25-4.9 216.03-7.15 216.03-9.9L216.03-9.9 216.03-35 222.03-35 222.03-9.15Q222.03-7.55 223.1-6.4 224.18-5.25 225.88-5.25L225.88-5.25 235.18-5.25 235.18 0ZM245.63 0L239.88 0 239.88-25.5 245.63-25.5 245.63 0ZM242.73-29.05L242.73-29.05Q241.23-29.05 240.13-30.15 239.03-31.25 239.03-32.75L239.03-32.75Q239.03-34.25 240.13-35.35 241.23-36.45 242.73-36.45L242.73-36.45Q244.28-36.45 245.35-35.35 246.43-34.25 246.43-32.75L246.43-32.75Q246.43-31.25 245.35-30.15 244.28-29.05 242.73-29.05ZM265.32 0L252.42 0 252.42-4.9 264.72-4.9Q265.62-4.9 266.3-5.3 266.97-5.7 267.35-6.35 267.72-7 267.72-7.7L267.72-7.7Q267.72-8.5 267.37-9.1 267.02-9.7 266.37-10.08 265.72-10.45 264.87-10.45L264.87-10.45 259.87-10.45Q257.42-10.45 255.52-11.25 253.62-12.05 252.52-13.73 251.42-15.4 251.42-17.95L251.42-17.95Q251.42-20 252.45-21.7 253.47-23.4 255.22-24.45 256.97-25.5 259.17-25.5L259.17-25.5 271.02-25.5 271.02-20.6 259.72-20.6Q258.57-20.6 257.82-19.88 257.07-19.15 257.07-18.1L257.07-18.1Q257.07-17.1 257.82-16.35 258.57-15.6 259.82-15.6L259.82-15.6 264.67-15.6Q267.42-15.6 269.37-14.75 271.32-13.9 272.35-12.2 273.37-10.5 273.37-7.9L273.37-7.9Q273.37-5.8 272.32-3.98 271.27-2.15 269.45-1.07 267.62 0 265.32 0L265.32 0ZM293.47 0L287.12 0Q283.72 0 281.8-1.95 279.87-3.9 279.87-7.25L279.87-7.25 279.87-31.9 285.57-31.9 285.57-7.5Q285.57-6.35 286.27-5.63 286.97-4.9 288.12-4.9L288.12-4.9 293.47-4.9 293.47 0ZM293.52-20.6L275.47-20.6 275.47-25.5 293.52-25.5 293.52-20.6Z" opacity="1" transform="matrix(1,0,0,1,0,0)" fill="#ffff00" class="wordmark-text-0" data-fill-palette-color="primary" id="text-0"></path></svg></g></svg></g><g transform="matrix(1,0,0,1,0,22.641613807495567)"><svg viewBox="0 0 158.39191898578665 19.758390440810704" height="19.758390440810704" width="158.39191898578665"><g transform="matrix(1,0,0,1,0,0)"><svg width="158.39191898578665" viewBox="1.71 -40.82 449.37 55.96" height="19.758390440810704" data-palette-color="#ffff00"><path d="M19.8-12.87L5.64-12.87Q5.22-12.87 5.22-11.08L5.22-11.08Q5.22-7.3 7.47-4.74 9.72-2.17 13.05-2.17 16.38-2.17 19.46-5.05L19.46-5.05Q19.51-5.1 19.58-5.1L19.58-5.1 19.7-5.1Q19.85-5.1 19.98-4.87 20.12-4.64 20.24-4.57L20.24-4.57Q17.41-1.12 13.57 0.2L13.57 0.2Q12.26 0.66 10.6 0.66 8.94 0.66 7.23-0.26 5.52-1.17 4.3-2.66L4.3-2.66Q1.71-5.76 1.71-10.39 1.71-15.01 4.53-18.82 7.35-22.63 12.28-22.63L12.28-22.63Q15.82-22.63 18.07-19.47 20.31-16.31 20.31-13.92L20.31-13.92Q20.31-12.87 19.8-12.87L19.8-12.87ZM5.91-15.5L5.91-15.21Q5.91-14.75 6.35-14.75L6.35-14.75 15.55-14.75Q16.19-14.75 16.19-15.5L16.19-15.5Q16.19-17.26 14.61-19.1 13.04-20.95 11.16-20.95L11.16-20.95Q9.33-20.95 7.82-19.29 6.32-17.63 5.91-15.5L5.91-15.5ZM53-21.97L60.49-21.97Q60.69-21.97 60.69-21.58 60.69-21.19 60.49-21.09L60.49-21.09Q58.61-20.58 57.49-19.38L57.49-19.38Q57.07-18.95 56.59-18.36L56.59-18.36 51.87-12.7Q51.78-12.52 51.78-12.38L51.78-12.38Q51.78-12.08 53.9-9.51 56.02-6.93 59.76-2.22L59.76-2.22Q60.03-1.88 60.83-1.54 61.64-1.2 61.93-0.99 62.23-0.78 62.23-0.44 62.23-0.1 61.93 0L61.93 0 52.31 0Q52.07 0 52.07-0.39 52.07-0.78 52.47-0.84 52.88-0.9 53.39-0.98L53.39-0.98Q54.68-1.17 54.68-2L54.68-2Q54.68-2.56 54.07-3.25L54.07-3.25 49.87-8.52Q49.68-8.79 49.57-8.94 49.46-9.08 49.14-9.08 48.82-9.08 48.64-8.83 48.46-8.57 48.26-8.37L48.26-8.37 44.43-3.76Q43.92-3.17 43.92-2.39 43.92-1.61 44.93-1.16 45.94-0.71 46.72-0.71L46.72-0.71Q46.89-0.71 46.89-0.34L46.89-0.34Q46.89 0 46.72 0L46.72 0 38.89 0Q38.5 0 38.5-0.44L38.5-0.44Q38.5-0.78 39.85-1.42 41.21-2.05 41.5-2.39L41.5-2.39 48.26-10.52Q48.24-10.57 48.18-10.64 48.11-10.72 47.89-10.99 47.68-11.25 47.21-11.83 46.75-12.4 44.76-14.86 42.77-17.31 40.57-20.04L40.57-20.04Q40.28-20.36 39.35-20.76 38.42-21.17 38.42-21.48L38.42-21.48Q38.47-21.97 39.01-21.97L39.01-21.97 48.09-21.97Q48.29-21.97 48.27-21.67 48.26-21.36 47.89-21.28 47.53-21.19 47.09-21.04L47.09-21.04Q45.92-20.7 45.92-19.85L45.92-19.85Q45.92-19.29 46.14-19.07L46.14-19.07 49.92-14.38Q50.12-14.16 50.32-13.9 50.53-13.65 50.69-13.65 50.85-13.65 51.04-13.89L51.04-13.89 54.63-18.07Q55.24-18.77 55.24-19.48 55.24-20.19 54.85-20.47 54.46-20.75 53.99-20.89 53.51-21.02 53.12-21.14 52.73-21.26 52.73-21.62 52.73-21.97 53-21.97L53-21.97ZM98.23-2.56L98.23-2.56Q94.86 0.66 90.66 0.66L90.66 0.66Q89.15 0.66 86.54 0.1L86.54 0.1Q86.12 0.1 86.09 0.39 86.05 0.68 86.02 1L86.02 1 86.02 11.43Q86.02 13.26 88.15 13.87L88.15 13.87Q89.08 14.11 89.88 14.22 90.69 14.33 90.92 14.43 91.15 14.53 91.15 14.81 91.15 15.09 90.91 15.14L90.91 15.14 78.68 15.14Q78.43 15.09 78.43 14.79L78.43 14.79Q78.43 14.36 79.58 14.21L79.58 14.21Q82.22 13.82 82.22 11.43L82.22 11.43 82.22-17.85Q82.22-18.87 81.09-19.26L81.09-19.26Q80.6-19.43 80.04-19.54 79.48-19.65 79.15-19.75 78.82-19.85 78.74-19.93 78.65-20.02 78.65-20.3 78.65-20.58 79.02-20.78L79.02-20.78 85.24-23.75Q85.44-23.85 85.63-23.85L85.63-23.85Q86.02-23.85 86.02-23.27L86.02-23.27 86.02-20.17Q86.02-19.9 86.3-19.9 86.59-19.9 87.66-20.61L87.66-20.61Q90.76-22.61 94.11-22.61L94.11-22.61Q96.45-22.61 98.4-20.7L98.4-20.7Q100.97-18.21 101.82-13.77L101.82-13.77Q102.06-12.5 102.06-11.07 102.06-9.64 101.6-8.06L101.6-8.06Q100.67-4.91 98.23-2.56ZM91.25-20.07L91.25-20.07Q87.93-20.07 86.02-18.16L86.02-18.16 86.02-4.44Q86.02-3.22 86.44-2.86L86.44-2.86Q87.51-1.93 89.74-1.42L89.74-1.42Q94.13-0.42 96.57-3.52L96.57-3.52Q98.3-5.74 98.3-8.89L98.3-8.89Q98.3-15.01 95.55-18.07L95.55-18.07Q93.89-19.92 91.25-20.07ZM130.77-0.93L130.77-0.93Q131.92-0.78 131.92-0.34L131.92-0.34Q131.92-0.05 131.67 0L131.67 0 120.78 0Q120.54-0.05 120.54-0.34L120.54-0.34Q120.54-0.78 121.69-0.93L121.69-0.93Q124.32-1.32 124.32-3.71L124.32-3.71 124.32-34.16Q124.32-35.18 123.2-35.57L123.2-35.57Q122.71-35.74 122.15-35.85 121.59-35.96 121.26-36.06 120.93-36.16 120.85-36.24 120.76-36.33 120.76-36.61 120.76-36.89 121.13-37.08L121.13-37.08 127.35-40.01Q127.64-40.16 127.72-40.16L127.72-40.16Q128.13-40.16 128.13-39.58L128.13-39.58 128.13-3.71Q128.13-1.32 130.77-0.93ZM149.9-10.97Q149.9-15.77 153.31-19.23 156.72-22.68 161.48-22.68 166.24-22.68 169.75-19.32 173.27-15.97 173.27-11.04 173.27-6.1 169.94-2.72 166.6 0.66 161.57 0.66 156.55 0.66 153.23-2.76 149.9-6.18 149.9-10.97ZM155.98-4.69L155.98-4.69Q158.38-0.66 162.5-0.66L162.5-0.66Q165.7-0.66 167.4-3.22 169.09-5.79 169.09-9.52 169.09-13.26 166.71-17.19 164.33-21.12 160.31-21.12L160.31-21.12Q157.35-21.12 155.65-18.57 153.96-16.02 153.96-12.1 153.96-8.18 155.98-4.69ZM206.95-17.5L206.95-17.5Q206.66-17.55 206.1-17.82L206.1-17.82Q204.07-18.75 202.93-18.75 201.78-18.75 200.52-17.32 199.26-15.89 199.26-14.75L199.26-14.75 199.26-3.71Q199.26-1.88 201.39-1.27L201.39-1.27Q202.32-1.03 203.12-0.92 203.93-0.81 204.16-0.71 204.39-0.61 204.39-0.33 204.39-0.05 204.15 0L204.15 0 191.92 0Q191.67-0.05 191.67-0.34L191.67-0.34Q191.67-0.78 192.82-0.93L192.82-0.93Q195.46-1.32 195.46-3.71L195.46-3.71 195.46-16.63Q195.46-17.65 194.33-18.04L194.33-18.04Q193.84-18.21 193.28-18.32 192.72-18.43 192.39-18.53 192.06-18.63 191.98-18.71 191.89-18.8 191.89-19.08 191.89-19.36 192.26-19.56L192.26-19.56 198.48-22.49Q198.78-22.63 198.85-22.63L198.85-22.63Q199.26-22.63 199.26-22.05L199.26-22.05 199.26-18.09Q199.26-17.8 199.41-17.8L199.41-17.8Q199.61-17.8 200.41-18.95L200.41-18.95Q202.73-22.19 204.24-22.19L204.24-22.19Q205.1-22.19 206.87-21.51 208.64-20.83 208.64-20.36L208.64-20.36Q208.64-19.8 208.08-18.65 207.52-17.5 206.95-17.5ZM243.74-12.87L229.58-12.87Q229.17-12.87 229.17-11.08L229.17-11.08Q229.17-7.3 231.41-4.74 233.66-2.17 236.99-2.17 240.32-2.17 243.4-5.05L243.4-5.05Q243.45-5.1 243.52-5.1L243.52-5.1 243.64-5.1Q243.79-5.1 243.92-4.87 244.06-4.64 244.18-4.57L244.18-4.57Q241.35-1.12 237.52 0.2L237.52 0.2Q236.2 0.66 234.54 0.66 232.88 0.66 231.17-0.26 229.46-1.17 228.24-2.66L228.24-2.66Q225.65-5.76 225.65-10.39 225.65-15.01 228.47-18.82 231.29-22.63 236.22-22.63L236.22-22.63Q239.76-22.63 242.01-19.47 244.25-16.31 244.25-13.92L244.25-13.92Q244.25-12.87 243.74-12.87L243.74-12.87ZM229.85-15.5L229.85-15.21Q229.85-14.75 230.29-14.75L230.29-14.75 239.49-14.75Q240.13-14.75 240.13-15.5L240.13-15.5Q240.13-17.26 238.55-19.1 236.98-20.95 235.1-20.95L235.1-20.95Q233.27-20.95 231.77-19.29 230.26-17.63 229.85-15.5L229.85-15.5ZM305.74-0.39L305.74-0.39Q305.74 0 305.3 0L305.3 0 291.9 0Q291.66-0.05 291.66-0.34L291.66-0.34Q291.66-0.78 292.8-0.93L292.8-0.93Q295.44-1.32 295.44-3.71L295.44-3.71 295.44-18.51Q295.44-18.77 295.15-18.77L295.15-18.77 292.49-18.77Q292.19-18.77 291.92-18.96 291.66-19.14 291.66-19.45 291.66-19.75 291.95-19.92L291.95-19.92Q292.36-20.17 293.9-20.58 295.44-21 295.44-21.95L295.44-21.95 295.44-22.75Q295.44-31.54 299.25-36.28L299.25-36.28Q301.37-38.94 305.72-40.38L305.72-40.38Q307.04-40.82 308.33-40.82 309.62-40.82 311.36-40.15 313.09-39.48 313.09-38.53L313.09-38.53Q313.09-38.33 313.03-38.18 312.97-38.04 312.9-37.82L312.9-37.82 311.89-35.67Q311.7-35.28 311.43-35.28L311.43-35.28Q311.36-35.28 310.38-36.05 309.4-36.82 308.32-37.46 307.23-38.11 305.77-38.11L305.77-38.11Q302.91-38.11 301.45-36.65 299.98-35.18 299.61-33.34 299.25-31.49 299.25-29.27L299.25-29.27 299.25-22.17Q299.25-21.97 299.49-21.97L299.49-21.97 304.25-21.97Q304.94-21.97 305.14-21.84 305.35-21.7 305.55-20.96 305.74-20.21 305.74-19.59 305.74-18.97 305.62-18.87 305.5-18.77 305.11-18.77L305.11-18.77 299.57-18.77Q299.25-18.77 299.25-18.53L299.25-18.53 299.25-4.2Q299.25-0.71 305.3-0.71L305.3-0.71Q305.74-0.66 305.74-0.39ZM333.81 0L322.92 0Q322.68-0.05 322.68-0.34L322.68-0.34Q322.68-0.78 323.83-0.93L323.83-0.93Q326.46-1.32 326.46-3.71L326.46-3.71 326.46-16.63Q326.46-17.65 325.34-18.04L325.34-18.04Q324.85-18.21 324.29-18.32 323.73-18.43 323.4-18.53 323.07-18.63 322.99-18.71 322.9-18.8 322.9-19.08 322.9-19.36 323.27-19.56L323.27-19.56 329.49-22.49Q329.78-22.63 329.86-22.63L329.86-22.63Q330.27-22.63 330.27-22.05L330.27-22.05 330.27-3.71Q330.27-1.32 332.91-0.93L332.91-0.93Q334.06-0.78 334.06-0.42 334.06-0.05 333.81 0L333.81 0ZM328.01-29.49Q327-29.49 326.23-30.13 325.46-30.76 325.46-31.9 325.46-33.03 326.2-33.69 326.93-34.35 327.94-34.35 328.95-34.35 329.65-33.57 330.35-32.79 330.35-31.88 330.35-30.98 329.69-30.24 329.03-29.49 328.01-29.49ZM361.3-0.93L361.3-0.93Q362.44-0.78 362.44-0.34L362.44-0.34Q362.44-0.05 362.2 0L362.2 0 351.31 0Q351.07-0.05 351.07-0.34L351.07-0.34Q351.07-0.78 352.22-0.93L352.22-0.93Q354.85-1.32 354.85-3.71L354.85-3.71 354.85-34.16Q354.85-35.18 353.73-35.57L353.73-35.57Q353.24-35.74 352.68-35.85 352.12-35.96 351.79-36.06 351.46-36.16 351.37-36.24 351.29-36.33 351.29-36.61 351.29-36.89 351.65-37.08L351.65-37.08 357.88-40.01Q358.17-40.16 358.25-40.16L358.25-40.16Q358.66-40.16 358.66-39.58L358.66-39.58 358.66-3.71Q358.66-1.32 361.3-0.93ZM412.49-7.69L412.49-7.69 412.44-12.84Q412.44-15.99 411.9-17.26 411.37-18.53 410.54-19.18 409.71-19.82 408.3-19.82 406.9-19.82 402.36-17.63L402.36-17.63Q401.75-17.26 401.72-16.94L401.72-16.94 401.72-3.81Q401.72-1.34 404.36-0.98L404.36-0.98Q405.51-0.81 405.51-0.43 405.51-0.05 405.26 0L405.26 0 394.37 0Q394.13-0.05 394.13-0.34L394.13-0.34Q394.13-0.81 395.28-0.98L395.28-0.98Q397.91-1.34 397.91-3.81L397.91-3.81 397.91-15.97Q397.91-19.8 393.18-19.8L393.18-19.8Q391.44-19.8 388.37-17.75L388.37-17.75Q387.59-17.24 387.22-16.8L387.22-16.8 387.22-3.81Q387.22-1.34 389.86-0.98L389.86-0.98Q391-0.81 391-0.43 391-0.05 390.76 0L390.76 0 379.87 0Q379.63-0.05 379.63-0.34L379.63-0.34Q379.63-0.81 380.77-0.98L380.77-0.98Q383.41-1.34 383.41-3.76L383.41-3.76 383.41-17.82Q383.41-18.85 382.29-19.24L382.29-19.24Q381.8-19.41 381.24-19.52 380.68-19.63 380.35-19.73 380.02-19.82 379.93-19.91 379.85-20 379.85-20.28 379.85-20.56 380.21-20.75L380.21-20.75 386.44-23.68Q386.73-23.83 386.8-23.83L386.8-23.83Q387.22-23.83 387.22-23.24L387.22-23.24 387.22-19.19Q387.24-19.04 387.4-19.04 387.56-19.04 388.21-19.38 388.86-19.73 389.91-20.35 390.96-20.97 392.68-21.8 394.4-22.63 396.33-22.63L396.33-22.63Q399.43-22.63 400.77-19.97L400.77-19.97Q401.28-18.9 401.7-19.06 402.11-19.21 402.99-19.65L402.99-19.65Q405.07-20.68 407.19-21.66 409.31-22.63 410.71-22.63L410.71-22.63Q416.35-22.63 416.35-12.35L416.35-12.35 416.13-5.22 416.13-3.81Q416.13-1.9 418.03-1.32L418.03-1.32Q418.84-1.05 419.58-0.94 420.33-0.83 420.56-0.73 420.79-0.63 420.79-0.34 420.79-0.05 420.54 0L420.54 0 408.78 0Q408.53-0.05 408.53-0.34L408.53-0.34Q408.53-0.81 409.68-0.98L409.68-0.98Q412.29-1.34 412.29-4L412.29-4Q412.49-5.22 412.49-7.69ZM449.74-18.95L449.74-16.7Q449.74-16.16 449.34-16.16 448.93-16.16 448.71-16.75L448.71-16.75Q448.13-18.36 446.97-19.6 445.81-20.85 444.1-20.85L444.1-20.85Q441.85-20.85 441.07-18.6L441.07-18.6Q440.83-17.85 440.83-17.04 440.83-16.24 441.85-15.25 442.88-14.26 445.22-12.89 447.57-11.52 448.64-10.57L448.64-10.57Q451.08-8.4 451.08-5.54 451.08-2.69 448.98-1.01 446.88 0.66 444.1 0.66L444.1 0.66Q442.61 0.66 441.4 0.26 440.19-0.15 440.01-0.15 439.83-0.15 439.42 0.26 439.02 0.66 438.78 0.66L438.78 0.66 438.36 0.66Q438.22 0.66 438-1.98 437.78-4.61 437.78-5.1 437.78-5.59 437.86-5.64 437.95-5.69 438.14-5.69 438.34-5.69 438.47-5.57 438.61-5.44 438.7-5.26 438.8-5.08 438.86-4.88 438.92-4.69 439.17-4.15L439.17-4.15Q440.83-0.61 444.29-0.61L444.29-0.61Q445.83-0.61 446.76-1.75 447.69-2.88 447.69-4.27 447.69-5.66 446.96-6.62 446.22-7.57 445.14-8.35 444.05-9.13 442.78-9.86L442.78-9.86Q437.85-12.74 437.85-16.24L437.85-16.24Q437.85-18.85 440.1-20.74 442.34-22.63 444.71-22.63 447.08-22.63 448.21-22.12 449.35-21.61 449.54-21.25 449.74-20.9 449.74-18.95L449.74-18.95Z" opacity="1" transform="matrix(1,0,0,1,0,0)" fill="#ffff00" class="slogan-text-1" data-fill-palette-color="secondary" id="text-1"></path></svg></g></svg></g></svg></g></svg></g><g transform="matrix(1,0,0,1,49.963549314335154,0)"><svg viewBox="0 0 58.46482035711633 58.59680587115927" height="58.59680587115927" width="58.46482035711633"><g><svg xmlns="http://www.w3.org/2000/svg" xmlns:xlink="http://www.w3.org/1999/xlink" version="1.1" x="0" y="0" viewBox="6.033 8.066 85.935 86.12899999999999" enable-background="new 0 0 100 100" xml:space="preserve" height="58.59680587115927" width="58.46482035711633" class="icon-icon-0" data-fill-palette-color="accent" id="icon-0"><path fill-rule="evenodd" clip-rule="evenodd" fill="#ffff00" d="M78.763 34.473l13-12.841-4.198-4.249-15.133 14.95L48.536 8.066l-4.256 4.191 21.876 22.215H6.033v59.723h85.935V34.473H78.763zM69.389 78.367c0 3.322-2.692 6.018-6.016 6.018H22.34c-3.325 0-6.018-2.695-6.018-6.018V51.496c0-3.323 2.693-6.018 6.018-6.018h41.033c3.323 0 6.016 2.695 6.016 6.018V78.367z" data-fill-palette-color="accent"></path></svg></g></svg></g><g></g></svg></g></svg></g></svg></g><g id="text-0"><path d="M34.752 97.924l-0.622 1.77c-0.502 1.43-1.261 2.563-2.277 3.399-1.012 0.844-2.168 1.368-3.467 1.571-1.295 0.212-2.607 0.084-3.937-0.383v0l-14.398-5.057-2.599 7.4-3.812-1.339 6.715-19.118 3.812 1.339-2.602 7.409 14.94 5.247c0.774 0.272 1.534 0.237 2.278-0.104 0.742-0.336 1.258-0.916 1.548-1.74v0l0.609-1.733z" fill="#ffff00" data-fill-palette-color="accent"></path><path d="M41.699 84.701l-2.338 3.76-23.834-14.822 2.339-3.76 8.844 5.5c-0.294-1.118-0.328-2.223-0.103-3.314 0.224-1.1 0.621-2.108 1.191-3.024v0c0.947-1.523 2.08-2.623 3.397-3.3 1.308-0.675 2.698-0.949 4.17-0.821 1.477 0.131 2.932 0.643 4.366 1.534v0l9.602 5.972-2.317 3.726-9.569-5.951c-0.849-0.528-1.717-0.791-2.606-0.79-0.892 0.006-1.718 0.218-2.476 0.634-0.762 0.423-1.385 1.025-1.872 1.806v0c-0.461 0.742-0.721 1.547-0.777 2.416-0.057 0.869 0.107 1.695 0.492 2.481 0.394 0.783 0.993 1.424 1.796 1.923v0z" fill="#ffff00" data-fill-palette-color="accent"></path><path d="M67.889 53.933l-3.837 3.614c-1.604 1.511-3.292 2.528-5.064 3.052-1.776 0.528-3.505 0.574-5.187 0.14-1.682-0.443-3.183-1.366-4.504-2.768v0c-1.384-1.469-2.306-3.047-2.766-4.732-0.456-1.68-0.46-3.331-0.014-4.952 0.446-1.621 1.349-3.071 2.708-4.351v0c1.532-1.443 3.1-2.302 4.705-2.577 1.605-0.275 3.163-0.088 4.675 0.561 1.516 0.654 2.914 1.66 4.194 3.018v0c0.177 0.188 0.369 0.411 0.577 0.671 0.212 0.264 0.36 0.479 0.444 0.645v0l-10.131 9.544c0.819 0.638 1.674 1 2.566 1.088 0.896 0.092 1.788-0.043 2.674-0.405 0.891-0.367 1.737-0.927 2.536-1.68v0l3.837-3.615zM51.611 53.636v0l7.046-6.637c-0.35-0.343-0.734-0.649-1.153-0.919-0.418-0.279-0.866-0.494-1.343-0.644-0.478-0.15-0.961-0.214-1.448-0.191-0.492 0.018-0.992 0.134-1.499 0.348-0.503 0.21-0.997 0.544-1.484 1.003v0c-0.559 0.526-0.951 1.1-1.175 1.72-0.229 0.616-0.33 1.238-0.302 1.867 0.028 0.628 0.169 1.236 0.423 1.824 0.254 0.588 0.566 1.131 0.935 1.629z" fill="#ffff00" data-fill-palette-color="accent"></path><path d="M97.04 36.936l-4.295 1.691-7.14-18.134c-0.492-1.321-0.638-2.623-0.438-3.903 0.196-1.272 0.695-2.418 1.496-3.438 0.795-1.017 1.848-1.784 3.159-2.3v0l8.942-3.521 1.481 3.76-8.471 3.335c-0.911 0.359-1.538 0.954-1.88 1.786-0.345 0.84-0.343 1.703 0.007 2.59v0l1.8 4.573 10.337-4.07 1.48 3.76-10.337 4.07z" fill="#ffff00" data-fill-palette-color="accent"></path><path d="M123.174 29.381l-4.35 0.827-3.659-19.264 4.35-0.826zM116.811 7.852v0c-0.754 0.143-1.46-0.009-2.118-0.456-0.664-0.446-1.069-1.05-1.213-1.811v0c-0.143-0.754 0.012-1.461 0.466-2.12 0.448-0.658 1.049-1.058 1.803-1.201v0c0.78-0.148 1.493 0.003 2.138 0.453 0.651 0.449 1.048 1.051 1.191 1.804v0c0.144 0.761-0.004 1.469-0.445 2.126-0.435 0.655-1.042 1.057-1.822 1.205z" fill="#ffff00" data-fill-palette-color="accent"></path><path d="M139.736 28.033l-4.423 0.217-1.377-28.033 4.422-0.217z" fill="#ffff00" data-fill-palette-color="accent"></path><path d="M155.051 29.708l-4.297-0.892 2.383-11.48c0.308-1.484 0.944-2.772 1.907-3.863 0.958-1.099 2.178-1.88 3.66-2.343 1.49-0.468 3.161-0.51 5.015-0.125v0c0.907 0.188 1.749 0.481 2.524 0.879 0.782 0.399 1.482 0.919 2.1 1.561 0.612 0.634 1.092 1.366 1.44 2.195v0l0.039 0.008c0.656-0.621 1.391-1.1 2.205-1.439 0.815-0.345 1.667-0.543 2.557-0.594 0.89-0.052 1.785 0.016 2.685 0.202v0c1.886 0.391 3.409 1.096 4.571 2.115 1.162 1.012 1.967 2.213 2.415 3.604 0.443 1.383 0.51 2.817 0.203 4.3v0l-2.383 11.481-4.287-0.89 2.383-11.48c0.172-0.83 0.121-1.628-0.152-2.394-0.275-0.76-0.711-1.412-1.308-1.955-0.591-0.542-1.327-0.904-2.208-1.087v0c-0.849-0.176-1.668-0.137-2.458 0.118-0.783 0.257-1.452 0.679-2.007 1.267-0.556 0.594-0.92 1.306-1.092 2.136v0l-2.383 11.48-4.287-0.889 2.383-11.481c0.172-0.83 0.115-1.629-0.172-2.398-0.288-0.763-0.737-1.417-1.347-1.963-0.604-0.544-1.333-0.905-2.188-1.082v0c-0.849-0.176-1.662-0.135-2.439 0.122-0.77 0.259-1.433 0.683-1.987 1.271-0.556 0.594-0.92 1.306-1.092 2.136v0z" fill="#ffff00" data-fill-palette-color="accent"></path><path d="M217.746 57.508l-5.702-4.309c-1.209-0.914-2.062-1.986-2.56-3.217-0.501-1.225-0.653-2.489-0.457-3.792 0.193-1.298 0.714-2.509 1.564-3.634v0l11.637-15.397 3.683 2.783-11.984 15.857c-0.495 0.655-0.701 1.383-0.617 2.184 0.083 0.801 0.473 1.465 1.17 1.992v0l5.703 4.31z" fill="#ffff00" data-fill-palette-color="accent"></path><path d="M227.848 68.035l-3.014-3.244 14.363-13.347 3.014 3.244zM242.691 51.193v0c-0.523-0.562-0.769-1.241-0.74-2.036 0.025-0.8 0.321-1.463 0.888-1.991v0c0.562-0.523 1.243-0.767 2.043-0.733 0.795 0.029 1.454 0.325 1.976 0.888v0c0.541 0.582 0.792 1.265 0.754 2.051-0.034 0.79-0.332 1.447-0.894 1.969v0c-0.567 0.527-1.246 0.779-2.037 0.754-0.786-0.019-1.449-0.32-1.99-0.902z" fill="#ffff00" data-fill-palette-color="accent"></path><path d="M240.119 85.721l-5.277-8.41 3.196-2.005 5.028 8.014c0.246 0.392 0.548 0.68 0.905 0.863 0.351 0.186 0.721 0.271 1.108 0.254 0.386-0.008 0.73-0.107 1.033-0.297v0c0.348-0.218 0.604-0.488 0.769-0.81 0.163-0.313 0.238-0.661 0.225-1.044-0.013-0.382-0.136-0.759-0.369-1.128v0l-2.042-3.255c-0.668-1.065-1.087-2.119-1.256-3.161-0.173-1.048-0.045-2.039 0.385-2.973 0.43-0.934 1.197-1.747 2.301-2.44v0c0.891-0.559 1.846-0.85 2.865-0.871 1.016-0.012 1.991 0.216 2.925 0.684 0.933 0.478 1.698 1.193 2.296 2.146v0l4.844 7.72-3.187 2-4.617-7.358c-0.313-0.499-0.731-0.811-1.255-0.936-0.518-0.128-1.004-0.05-1.459 0.235v0c-0.437 0.274-0.717 0.676-0.837 1.206-0.121 0.529-0.011 1.066 0.33 1.609v0l1.979 3.154c0.749 1.194 1.204 2.331 1.365 3.409 0.167 1.075 0.021 2.069-0.438 2.982-0.462 0.907-1.257 1.714-2.383 2.422v0c-0.914 0.573-1.909 0.881-2.984 0.923-1.075 0.042-2.098-0.188-3.069-0.688-0.961-0.499-1.755-1.247-2.381-2.245z" fill="#ffff00" data-fill-palette-color="accent"></path><path d="M251.263 111.105l-1.666-4.592c-0.596-1.643-0.592-3.098 0.012-4.366 0.603-1.268 1.714-2.195 3.332-2.781v0l17.817-6.461 1.496 4.125-17.64 6.397c-0.554 0.201-0.944 0.532-1.171 0.995-0.227 0.462-0.239 0.97-0.038 1.524v0l1.404 3.873zM266.172 105.741l-4.735-13.057 3.538-1.283 4.734 13.057z" fill="#ffff00" data-fill-palette-color="accent"></path><path d="M16.237 197.129l-0.633-1.798c-0.506-1.436-0.623-2.805-0.351-4.108 0.265-1.3 0.841-2.443 1.728-3.429 0.888-0.986 2.003-1.716 3.345-2.189v0l14.543-5.121-2.631-7.472 3.84-1.352 6.795 19.3-3.839 1.352-2.631-7.473-15.086 5.312c-0.787 0.277-1.366 0.783-1.74 1.518-0.367 0.733-0.404 1.514-0.111 2.344v0l0.62 1.76z" fill="#ffff00" data-fill-palette-color="accent"></path><path d="M25.011 214.116l-2.357-3.783 24.049-14.982 2.357 3.783-8.923 5.56c1.152 0.234 2.17 0.699 3.056 1.394 0.891 0.692 1.626 1.502 2.203 2.429v0c0.955 1.534 1.45 3.047 1.482 4.539 0.024 1.49-0.35 2.874-1.122 4.15-0.772 1.276-1.883 2.366-3.333 3.269v0l-9.69 6.037-2.342-3.758 9.657-6.016c0.854-0.532 1.481-1.203 1.881-2.014 0.391-0.813 0.564-1.654 0.521-2.524-0.037-0.874-0.303-1.706-0.796-2.498v0c-0.465-0.747-1.08-1.339-1.843-1.776-0.761-0.446-1.585-0.666-2.47-0.66-0.883-0.003-1.732 0.249-2.547 0.756v0z" fill="#ffff00" data-fill-palette-color="accent"></path><path d="M54.562 248.91l-3.871-3.637c-1.625-1.528-2.758-3.169-3.397-4.924-0.64-1.755-0.79-3.494-0.45-5.218 0.34-1.724 1.174-3.293 2.502-4.707v0c1.401-1.49 2.937-2.517 4.61-3.079 1.664-0.562 3.325-0.667 4.984-0.316 1.659 0.351 3.176 1.173 4.55 2.465v0c1.548 1.455 2.511 2.982 2.889 4.581 0.377 1.599 0.286 3.18-0.275 4.742-0.565 1.567-1.493 3.038-2.784 4.413v0c-0.181 0.193-0.395 0.401-0.641 0.624-0.25 0.228-0.458 0.391-0.624 0.49v0l-10.244-9.627c-0.591 0.861-0.906 1.747-0.943 2.656-0.033 0.905 0.161 1.795 0.581 2.672 0.416 0.872 1.031 1.691 1.846 2.457v0l3.871 3.637zM53.863 232.49v0l7.126 6.697c0.321-0.38 0.605-0.789 0.854-1.228 0.253-0.434 0.443-0.896 0.568-1.387 0.116-0.491 0.15-0.981 0.101-1.471-0.053-0.495-0.202-0.989-0.446-1.482-0.24-0.498-0.606-0.979-1.098-1.441v0c-0.564-0.53-1.165-0.891-1.804-1.082-0.638-0.191-1.274-0.253-1.909-0.187-0.625 0.066-1.229 0.244-1.81 0.534-0.576 0.294-1.104 0.643-1.582 1.047z" fill="#ffff00" data-fill-palette-color="accent"></path><path d="M89.889 269.771l-4.343-1.707 7.197-18.314c0.545-1.315 1.333-2.378 2.363-3.189 1.028-0.805 2.185-1.307 3.471-1.505 1.289-0.204 2.596-0.046 3.921 0.474v0l9.027 3.548-1.489 3.788-8.556-3.362c-0.918-0.361-1.794-0.349-2.627 0.034-0.827 0.386-1.416 1.026-1.767 1.919v0l-1.816 4.62 10.441 4.103-1.492 3.798-10.441-4.104z" fill="#ffff00" data-fill-palette-color="accent"></path><path d="M119.569 278.34l-4.38-0.831 3.688-19.449 4.38 0.83zM121.567 255.76v0c-0.767-0.146-1.378-0.551-1.831-1.216-0.453-0.665-0.608-1.378-0.463-2.139v0c0.144-0.761 0.549-1.368 1.214-1.821 0.665-0.453 1.382-0.607 2.149-0.462v0c0.787 0.149 1.4 0.555 1.841 1.219 0.44 0.663 0.588 1.375 0.443 2.135v0c-0.144 0.761-0.543 1.369-1.194 1.825-0.652 0.456-1.372 0.609-2.159 0.459z" fill="#ffff00" data-fill-palette-color="accent"></path><path d="M138.742 280l-4.452-0.221 1.406-28.3 4.452 0.221z" fill="#ffff00" data-fill-palette-color="accent"></path><path d="M158.951 277.937l-4.336 0.899-2.405-11.598c-0.309-1.491-0.241-2.938 0.205-4.341 0.453-1.399 1.273-2.613 2.458-3.643 1.187-1.024 2.72-1.73 4.6-2.12v0c0.907-0.188 1.802-0.256 2.685-0.202 0.883 0.053 1.739 0.254 2.569 0.603 0.822 0.343 1.561 0.829 2.218 1.456v0l0.039-0.008c0.36-0.839 0.849-1.579 1.466-2.22 0.616-0.648 1.325-1.174 2.127-1.577 0.802-0.403 1.66-0.699 2.574-0.889v0c1.899-0.394 3.593-0.357 5.082 0.112 1.484 0.476 2.713 1.266 3.685 2.369 0.967 1.111 1.605 2.411 1.915 3.902v0l2.405 11.597-4.336 0.899-2.405-11.597c-0.173-0.836-0.538-1.551-1.094-2.146-0.564-0.6-1.227-1.03-1.991-1.29-0.772-0.266-1.601-0.307-2.489-0.123v0c-0.862 0.179-1.604 0.546-2.226 1.101-0.63 0.55-1.08 1.211-1.353 1.984-0.28 0.768-0.333 1.57-0.16 2.406v0l2.406 11.597-4.326 0.897-2.406-11.597c-0.173-0.836-0.548-1.549-1.123-2.14-0.57-0.598-1.247-1.026-2.03-1.282-0.778-0.264-1.598-0.307-2.46-0.129v0c-0.862 0.179-1.601 0.545-2.216 1.099-0.61 0.546-1.055 1.206-1.333 1.979-0.274 0.766-0.324 1.568-0.15 2.404v0z" fill="#ffff00" data-fill-palette-color="accent"></path><path d="M229.692 246.509l-5.759 4.351c-1.22 0.922-2.497 1.455-3.83 1.6-1.33 0.15-2.599-0.048-3.809-0.594-1.209-0.546-2.243-1.387-3.1-2.522v0l-11.749-15.549 3.723-2.813 12.096 16.008c0.503 0.665 1.155 1.068 1.958 1.208 0.799 0.135 1.549-0.063 2.251-0.594v0l5.759-4.351z" fill="#ffff00" data-fill-palette-color="accent"></path><path d="M242.257 233.759l-3.037 3.263-14.494-13.483 3.036-3.264zM224.213 220.038v0c-0.532 0.572-1.2 0.872-2.005 0.902-0.804 0.029-1.49-0.22-2.057-0.748v0c-0.567-0.527-0.865-1.193-0.894-1.998-0.029-0.804 0.222-1.493 0.754-2.064v0c0.545-0.586 1.216-0.889 2.011-0.909 0.795-0.019 1.477 0.235 2.044 0.762v0c0.567 0.527 0.87 1.189 0.908 1.983 0.038 0.795-0.216 1.485-0.761 2.072z" fill="#ffff00" data-fill-palette-color="accent"></path><path d="M256.769 213.163l-5.331 8.481-3.219-2.023 5.082-8.086c0.247-0.392 0.376-0.791 0.39-1.198 0.007-0.41-0.081-0.786-0.265-1.128-0.178-0.339-0.421-0.605-0.729-0.798v0c-0.353-0.222-0.709-0.34-1.067-0.354-0.358-0.014-0.709 0.07-1.051 0.254-0.342 0.184-0.629 0.46-0.862 0.83v0l-2.066 3.286c-0.676 1.076-1.453 1.92-2.331 2.534-0.869 0.611-1.822 0.927-2.859 0.947-1.037 0.02-2.116-0.322-3.236-1.026v0c-0.897-0.564-1.577-1.304-2.041-2.221-0.463-0.917-0.684-1.903-0.66-2.96 0.023-1.057 0.338-2.067 0.943-3.03v0l4.898-7.792 3.219 2.024-4.67 7.43c-0.317 0.504-0.42 1.022-0.309 1.554 0.11 0.522 0.397 0.93 0.862 1.222v0c0.437 0.275 0.92 0.352 1.45 0.231 0.538-0.123 0.98-0.459 1.325-1.008v0l2.003-3.186c0.757-1.205 1.591-2.115 2.502-2.731 0.909-0.625 1.877-0.927 2.904-0.907 1.027 0.02 2.109 0.388 3.247 1.103v0c0.919 0.578 1.635 1.348 2.147 2.311 0.512 0.963 0.752 1.993 0.719 3.091-0.029 1.092-0.361 2.142-0.995 3.15z" fill="#ffff00" data-fill-palette-color="accent"></path><path d="M269.773 184.009l-1.686 4.637c-0.602 1.655-1.545 2.776-2.83 3.366-1.293 0.593-2.755 0.593-4.384 0v0l-17.989-6.542 1.513-4.161 17.802 6.474c0.56 0.204 1.079 0.199 1.559-0.014 0.477-0.207 0.817-0.59 1.02-1.15v0l1.422-3.91zM254.752 178.515l-4.787 13.164-3.574-1.299 4.788-13.165z" fill="#ffff00" data-fill-palette-color="accent"></path><path d="M4.726 144.176c0-5.921 4.8-10.721 10.722-10.721 5.921 0 10.721 4.8 10.721 10.721 0 5.921-4.8 10.721-10.721 10.721-5.921 0-10.721-4.8-10.722-10.721z" fill="#ffff00" data-fill-palette-color="accent"></path><path d="M254.917 144.176c0-5.921 4.8-10.721 10.722-10.721 5.921 0 10.721 4.8 10.721 10.721 0 5.921-4.8 10.721-10.721 10.721-5.921 0-10.721-4.8-10.722-10.721z" fill="#ffff00" data-fill-palette-color="accent"></path></g><g id="text-1"></g></svg></g><defs></defs></svg><rect width="280" height="280" fill="none" stroke="none" visibility="hidden"></rect></g></svg></g></svg>